<svg id="Capa_1" enable-background="new 0 0 512 512" height="512" viewBox="0 0 512 512" width="512" xmlns="http://www.w3.org/2000/svg"><g><path d="m457.399 393.763c-14.118-14.12-34.848-16.643-51.227-8.802l-279.152-279.154c7.967-16.724 5.045-37.381-8.782-51.208l-50.203-50.205c-5.856-5.857-15.354-5.858-21.213 0l-42.426 42.426c-5.854 5.853-5.858 15.356 0 21.213l50.204 50.204c14.118 14.12 34.848 16.643 51.227 8.802l279.152 279.155c-7.967 16.724-5.045 37.381 8.782 51.208l50.204 50.205c5.857 5.858 15.355 5.858 21.213 0l42.426-42.426c5.854-5.853 5.858-15.356 0-21.213z"/><path d="m183.395 349.818-116.651 116.652c-5.857 5.857-15.355 5.859-21.213 0-5.858-5.858-5.858-15.355 0-21.213l116.613-116.614c-14.571-27.502-3.315-63.609 12.744-90.117l-41.127-41.128c-52.377 63.059-84.481 132.586-102.921 183.223-23.554 64.676-30.411 112.289-30.691 114.284-1.27 9.027 5.75 17.087 14.852 17.087 6.746 0 58.642-9.812 116.375-30.836 50.637-18.44 120.164-50.542 183.222-102.917l-41.114-41.114c-26.54 16.06-62.681 27.044-90.089 12.693z"/><path d="m328.613 162.172 116.642-116.642c5.858-5.858 15.356-5.858 21.213 0 5.858 5.858 5.858 15.355 0 21.213l-116.613 116.613c14.571 27.502 3.315 63.608-12.744 90.117l41.127 41.128c52.377-63.058 84.481-132.585 102.921-183.221 23.554-64.677 30.411-112.29 30.691-114.285 1.392-9.889-7.103-18.332-16.94-16.941-1.995.28-49.609 7.137-114.287 30.69-50.637 18.44-120.164 50.542-183.223 102.917l41.12 41.12c32.804-19.849 66.658-24.979 90.093-12.709z"/><path d="m251.506 315.146-54.61-54.611c-9.217 17.266-17.964 44.87-4.74 58.885 10.157 10.496 33.538 9.46 59.35-4.274z"/><path d="m260.431 196.998 54.61 54.611c13.735-25.812 14.771-49.193 4.274-59.351-14.014-13.224-41.618-4.477-58.884 4.74z"/></g></svg>