<svg id="Capa_1" enable-background="new 0 0 512 512" height="512" viewBox="0 0 512 512" width="512" xmlns="http://www.w3.org/2000/svg"><g><path d="m306.836 65.439c-27.454 17.299-59.318 39.998-92.772 69.004l-16.164-16.164-.863-17.86c-1.119-23.144-10.759-44.914-27.144-61.299l-39.12-39.12-71.596 71.597 39.119 39.119c16.384 16.385 38.154 26.025 61.299 27.144l16.245.785 15.906 15.906c7.497-7.016 14.944-13.716 22.317-20.109l39.727 39.727c4.114-3.525 8.254-7.005 12.424-10.418 23.291-19.063 56.884-17.41 78.142 3.847h.001c21.248 21.25 22.95 54.789 3.957 78.013-3.459 4.23-6.972 8.414-10.519 12.562l39.606 39.606c-6.395 7.369-13.097 14.814-20.116 22.31l-39.479-39.479c-6.006 6.468-29.271 29.78-34.908 35.077l39.468 39.468c5.529-5.22 29.045-28.792 34.919-35.066l22.41 22.41 21.213-21.213-23.507-23.507c28.443-32.776 50.833-64.004 68.005-91.037-5.244-35.559-21.911-68.815-47.449-94.353-25.084-25.083-56.455-41.214-91.121-46.95z"/><path d="m261.676 294.466c5.644-5.289 28.906-28.601 34.904-35.081l-43.978-43.978c-6.434 5.969-29.742 29.249-35.05 34.936z"/><path d="m501.58 10.319c-10.343-10.344-28.054-12.879-54.14-7.751-21.806 4.287-48.667 13.925-77.679 27.871-7.428 3.57-16.245 8.034-26.194 13.461 28.262 9.662 53.927 25.664 75.603 47.34 22.1 22.099 38.563 49.106 48.199 78.494 5.757-10.473 10.47-19.738 14.197-27.475 13.98-29.023 23.625-55.888 27.893-77.687 5.108-26.096 2.532-43.843-7.879-54.253z"/><path d="m41.337 348.26c-4.284 8.024-7.904 15.229-10.895 21.455-13.934 29.008-23.57 55.868-27.863 77.676-5.136 26.083-2.617 43.779 7.703 54.098 7 6.999 17.622 10.511 31.715 10.511 6.775 0 14.352-.812 22.712-2.438 21.79-4.238 48.659-13.894 77.701-27.925 5.72-2.764 12.289-6.078 19.554-9.947-27.129-9.855-51.796-25.566-72.766-46.536-21.72-21.718-38.038-48.137-47.861-76.894z"/><path d="m186.919 285.419c-9.181 11.246-8.337 27.492 1.962 37.791 10.344 10.345 26.662 11.127 37.973 1.84 4.187-3.438 8.347-6.944 12.479-10.501l-41.807-41.807c-3.58 4.181-7.12 8.406-10.607 12.677z"/><path d="m300.148 375.364-39.546-39.546c-4.865 4.215-9.769 8.36-14.709 12.417-10.865 8.922-23.981 13.329-37.041 13.329-14.939 0-29.807-5.762-41.166-17.123-21.25-21.249-22.965-54.771-4.006-77.993 4.125-5.054 8.322-10.047 12.572-14.98l-39.757-39.757c-31.49 36.044-55.675 70.351-73.67 99.382 5.697 35.016 22.362 67.688 47.586 92.913 24.375 24.374 54.621 40.383 88.053 46.74 29.433-18.18 64.57-42.881 101.684-75.382l18.338 18.338.864 17.88c1.119 23.144 10.759 44.914 27.144 61.299l39.118 39.119 71.597-71.597-39.119-39.119c-16.385-16.385-38.154-26.025-61.299-27.143l-16.225-.785-18.2-18.2c-7.464 7.047-14.879 13.78-22.218 20.208z"/><path d="m156.683 189.474 39.645 39.645c5.314-5.677 28.624-28.957 35.049-34.936l-39.631-39.631c-6.275 5.873-29.844 29.388-35.063 34.922l-22.614-22.614-21.213 21.213 23.638 23.638c6.422-7.351 13.149-14.772 20.189-22.237z"/><path d="m325.091 226.62c9.196-11.246 8.359-27.5-1.948-37.808-5.502-5.501-12.714-8.294-19.96-8.294-6.333 0-12.691 2.131-17.967 6.449-3.402 2.784-6.78 5.622-10.144 8.485l41.439 41.439c2.887-3.398 5.754-6.816 8.58-10.271z"/></g></svg>