<svg height="512" viewBox="0 0 512 512" width="512" xmlns="http://www.w3.org/2000/svg"><g id="filled_outline" data-name="filled outline"><path d="m400 304-32 16v40l32 8 16-48z" fill="#533222"/><path d="m248 244c-3.322 0-6.424 1.916-7.565-1.4l-35.768-104a8 8 0 1 1 15.129-5.2l35.769 104c1.437 4.178-.785 5.73-4.963 7.167-.862.294-1.74-.567-2.602-.567z" fill="#a8a8a8"/><path d="m248.008 248a8.108 8.108 0 0 1 -1.577-.157c-4.332-.866-8.965 4.49-8.1.157l9.669-48.792v-59.208a8 8 0 0 1 16 0v60a8.026 8.026 0 0 1 -.155 1.569l-8 40a8 8 0 0 1 -7.837 6.431z" fill="#cbcbcb"/><path d="m256 144a498.233 498.233 0 0 1 -143.262-21.026l-91.038-27.311a8 8 0 1 1 4.6-15.326l91.036 27.31a482.225 482.225 0 0 0 138.664 20.353 482.258 482.258 0 0 0 138.665-20.352l91.035-27.311a8 8 0 0 1 4.6 15.326l-91.037 27.311a498.233 498.233 0 0 1 -143.263 21.026z" fill="#cbcbcb"/><path d="m96 224h48a0 0 0 0 1 0 0v24a24 24 0 0 1 -24 24 24 24 0 0 1 -24-24v-24a0 0 0 0 1 0 0z" fill="#fdc9a6"/><path d="m120 176a32 32 0 0 1 32 32v16a0 0 0 0 1 0 0h-64a0 0 0 0 1 0 0v-16a32 32 0 0 1 32-32z" fill="#fbb540"/><path d="m152 256 32-48v-48l-8-16 8-16h32l8 24-8 16v56l-40 56z" fill="#fdc9a6"/><path d="m336 392 32 32 48-48-24-24-24 8z" fill="#683b0d"/><path d="m368 360v-40l-79.765-36.257z" fill="#0a6fa2"/><path d="m193.652 311.935 38.348-47.935v-16l16-8 24 8v32l-64 40z" fill="#e6af89"/><path d="m104.748 312.748 55.252 55.252 48-48-32-40z" fill="#cbcbcb"/><path d="m101.673 287.491a59.933 59.933 0 0 1 27.613-22.4l22.714-9.091 24 24-28.03 28.03a40.869 40.869 0 0 1 -28.9 11.97 20.91 20.91 0 0 1 -19.837-14.3 20.909 20.909 0 0 1 2.44-18.209z" fill="#e82f3e"/><path d="m160 368 12.284 12.284a40 40 0 0 0 28.285 11.716h.4a40 40 0 0 0 26.34-9.9l52.691-46.1 56 56 32-32-68.284-68.284a40 40 0 0 0 -28.285-11.716h-.949a40 40 0 0 0 -25.607 9.271l-36.875 30.729z" fill="#0a9acd"/><path d="m495.663 85.7a8 8 0 0 0 -9.962-5.364l-91.036 27.31a482.225 482.225 0 0 1 -138.665 20.354c-10.6 0-21.312-.377-31.927-1.08l-.484-1.45a8 8 0 0 0 -7.589-5.47h-32a7.991 7.991 0 0 0 -5.04 1.793 484.286 484.286 0 0 1 -61.625-14.146l-91.035-27.31a8 8 0 1 0 -4.6 15.326l91.037 27.31a500.359 500.359 0 0 0 57.994 13.674l-1.887 3.775a8 8 0 0 0 0 7.156l7.156 14.311v43.689l-24 36v-9.578a8 8 0 0 0 8-8v-16a40 40 0 0 0 -80 0v16a8 8 0 0 0 8 8v16a32.051 32.051 0 0 0 13.892 26.37 68.283 68.283 0 0 0 -6.875 8.683 28.9 28.9 0 0 0 10.433 41.527 8.006 8.006 0 0 0 .894 1.077l60.284 60.283a47.683 47.683 0 0 0 33.94 14.06h.4a47.99 47.99 0 0 0 31.608-11.876l47.056-41.175 50.708 50.708 32 32a8 8 0 0 0 11.314 0l48-48a8 8 0 0 0 0-11.314l-10.5-10.5 12.436-37.309a8 8 0 0 0 -1.932-8.187l-16-16a8 8 0 0 0 -9.235-1.5l-28.712 14.353-64.379-27.058a47.553 47.553 0 0 0 -23.332-11.371v-24.771a8 8 0 0 0 -5.47-7.59l-17.3-5.766s6.77-34.118 6.77-34.644v-56.073a498.2 498.2 0 0 0 135.262-20.953l91.038-27.311a8 8 0 0 0 5.363-9.963zm-247.663 58.222v55.286l-2.048 10.24-17.007-49.448 2.21-4.421a8 8 0 0 0 .434-6.108l-2.063-6.192q9.231.49 18.474.643zm-117.935 182.829a48.536 48.536 0 0 0 23.562-13.064l21.71-21.71 21.943 27.429-37.28 37.28zm-21.736-34.823a51.777 51.777 0 0 1 13.089-13.5q.211-.142.413-.3a52.059 52.059 0 0 1 10.426-5.616l17.816-7.127 14.613 14.615-22.373 22.373a32.654 32.654 0 0 1 -23.242 9.627 12.909 12.909 0 0 1 -10.741-20.072zm77.7-12.2 36.481-51.078a8 8 0 0 0 1.49-4.65v-29.185l14.157 41.163-9.735 4.867a8 8 0 0 0 -4.422 7.155v13.193l-26.4 33zm4.629-67.289a8 8 0 0 0 1.342-4.439v-48a7.994 7.994 0 0 0 -.845-3.578l-6.211-12.422 4-8h21.29l.343 1.028c.01.032.02.063.031.094l4.755 14.264-6.518 13.036a7.994 7.994 0 0 0 -.845 3.578v53.437l-33.021 46.228-12.685-12.685zm-94.658-4.439a24 24 0 0 1 48 0v8h-48zm40 24v16a16.007 16.007 0 0 1 -1.293 6.3l-8.392 3.356a68.217 68.217 0 0 0 -11.036 5.627 16.026 16.026 0 0 1 -11.279-15.283v-16zm138.732 97.979-52.69 46.1a31.99 31.99 0 0 1 -21.071 7.921h-.4a31.787 31.787 0 0 1 -22.627-9.373l-6.63-6.627 42.086-42.089 36.6-30.494a32.052 32.052 0 0 1 20.482-7.417h.95a31.787 31.787 0 0 1 22.627 9.373l62.627 62.627-20.686 20.686-50.343-50.343a8 8 0 0 0 -10.925-.364zm93.268 82.708-20.686-20.687 25.008-25.008 17.517-5.839 14.848 14.847zm30.42-98.953 8.427 8.427-8.347 25.029-.847-.847a8 8 0 0 0 -8.187-1.933l-13.466 4.49v-23.956zm-38.42 26.952-26.515-26.515 26.515 11.144zm-96-68.24a48.1 48.1 0 0 0 -24.247 10.68l-30.6 25.5-1.3-1.629 30.4-38a8 8 0 0 0 1.747-4.997v-11.056l8.614-4.306 15.386 5.128z"/></g></svg>